<?xml version="1.0" encoding="UTF-8"?>
<svg version="1.1" xmlns="http://www.w3.org/2000/svg" width="400" height="400">
<path d="M0 0 C2.51287571 1.19554779 4.06919904 2.66355494 6.0294342 4.6428833 C6.80994141 5.4236171 7.59044861 6.20435089 8.39460754 7.00874329 C9.22703979 7.85665939 10.05947205 8.7045755 10.91712952 9.57818604 C11.77711548 10.44241684 12.63710144 11.30664764 13.52314758 12.19706726 C16.27096027 14.9616859 19.00816487 17.7365484 21.74525452 20.51177979 C23.60524277 22.3868123 25.46591159 24.26116997 27.32728577 26.13482666 C31.89120424 30.73183996 36.4464539 35.33730934 40.99525452 39.94927979 C46.30559179 35.53227835 51.16662348 30.84402851 55.97572327 25.89068604 C57.48359231 24.35559664 58.99207352 22.82110837 60.50111389 21.28717041 C62.85737674 18.88743317 65.20954123 16.48417592 67.551651 14.07061768 C69.82756675 11.72843839 72.11879192 9.40221053 74.41322327 7.07818604 C75.11432724 6.34813858 75.81543121 5.61809113 76.53778076 4.86592102 C77.19559036 4.20450607 77.85339996 3.54309113 78.53114319 2.8616333 C79.10515366 2.27350357 79.67916412 1.68537384 80.27056885 1.079422 C81.99525452 -0.05072021 81.99525452 -0.05072021 83.95289612 0.03463745 C86.54374672 1.19491453 88.11603946 2.67428785 90.13710022 4.67120361 C91.34273369 5.85296928 91.34273369 5.85296928 92.57272339 7.05860901 C93.43016647 7.91585068 94.28760956 8.77309235 95.17103577 9.65631104 C96.05558945 10.53325119 96.94014313 11.41019135 97.85150146 12.31370544 C99.71892323 14.17031886 101.58272826 16.02991436 103.44178772 17.89483643 C105.82711132 20.28606959 108.23021468 22.65851127 110.63857746 25.02650928 C112.93162128 27.28753402 115.20650596 29.56667697 117.48353577 31.84381104 C118.35110001 32.69498001 119.21866425 33.54614899 120.11251831 34.42311096 C120.90051315 35.22041122 121.688508 36.01771149 122.50038147 36.83917236 C123.20113297 37.53786942 123.90188446 38.23656647 124.62387085 38.95643616 C125.99525452 40.94927979 125.99525452 40.94927979 125.938797 42.95976257 C124.76481033 45.4351855 123.34233548 46.96207091 121.39344788 48.8916626 C120.63273483 49.65214905 119.87202179 50.4126355 119.08825684 51.19616699 C117.84919334 52.4120047 117.84919334 52.4120047 116.58509827 53.65240479 C115.74306351 54.4901947 114.90102875 55.32798462 114.03347778 56.19116211 C111.34018769 58.86764811 108.63665792 61.53352035 105.93275452 64.19927979 C104.10589904 66.01109076 102.27971846 67.82358253 100.45423889 69.63677979 C95.97692413 74.08355352 91.48592281 78.51583096 86.99525452 82.94927979 C106.30025452 83.44427979 106.30025452 83.44427979 125.99525452 83.94927979 C126.32525452 96.81927979 126.65525452 109.68927979 126.99525452 122.94927979 C131.14861389 118.70890869 131.14861389 118.70890869 135.38587952 114.38287354 C138.06695434 111.66283974 140.75231084 108.94710308 143.43812561 106.23175049 C145.30691253 104.33777119 147.17119377 102.43933537 149.03089905 100.53643799 C151.70008293 97.80681707 154.38489775 95.0934723 157.07337952 92.38287354 C157.90581177 91.52463486 158.73824402 90.66639618 159.59590149 89.78215027 C160.37640869 89.00126541 161.15691589 88.22038055 161.96107483 87.41583252 C162.64502319 86.7207811 163.32897156 86.02572968 164.03364563 85.30961609 C165.99525452 83.94927979 165.99525452 83.94927979 167.98852539 84 C170.52865953 85.20160612 172.13604078 86.69405022 174.13710022 88.67120361 C175.34273369 89.85296928 175.34273369 89.85296928 176.57272339 91.05860901 C177.85888802 92.34447151 177.85888802 92.34447151 179.17103577 93.65631104 C180.05558945 94.53325119 180.94014313 95.41019135 181.85150146 96.31370544 C183.71892323 98.17031886 185.58272826 100.02991436 187.44178772 101.89483643 C189.82711132 104.28606959 192.23021468 106.65851127 194.63857746 109.02650928 C196.93162128 111.28753402 199.20650596 113.56667697 201.48353577 115.84381104 C202.35110001 116.69498001 203.21866425 117.54614899 204.11251831 118.42311096 C204.90051315 119.22041122 205.688508 120.01771149 206.50038147 120.83917236 C207.55150871 121.88721794 207.55150871 121.88721794 208.62387085 122.95643616 C209.99525452 124.94927979 209.99525452 124.94927979 209.9445343 126.95402527 C208.74898652 129.46690098 207.28097936 131.02322431 205.301651 132.98345947 C204.52091721 133.76396667 203.74018341 134.54447388 202.93579102 135.34863281 C202.08787491 136.18106506 201.2399588 137.01349731 200.36634827 137.87115479 C199.50211746 138.73114075 198.63788666 139.59112671 197.74746704 140.47717285 C194.9828484 143.22498554 192.2079859 145.96219014 189.43275452 148.69927979 C187.557722 150.55926804 185.68336433 152.41993686 183.80970764 154.28131104 C179.21269434 158.84522951 174.60722497 163.40047916 169.99525452 167.94927979 C174.41225595 173.25961706 179.10050579 178.12064874 184.05384827 182.92974854 C185.58893766 184.43761758 187.12342593 185.94609879 188.65736389 187.45513916 C191.05710114 189.81140201 193.46035839 192.1635665 195.87391663 194.50567627 C198.21609591 196.78159202 200.54232377 199.07281719 202.86634827 201.36724854 C203.59639572 202.06835251 204.32644318 202.76945648 205.07861328 203.49180603 C205.74002823 204.14961563 206.40144318 204.80742523 207.082901 205.48516846 C207.67103073 206.05917892 208.25916046 206.63318939 208.8651123 207.22459412 C209.99525452 208.94927979 209.99525452 208.94927979 209.90989685 210.90692139 C208.74961977 213.49777199 207.27024645 215.07006473 205.27333069 217.09112549 C204.48548691 217.89488113 203.69764313 218.69863678 202.88592529 219.52674866 C202.02868362 220.38419174 201.17144196 221.24163483 200.28822327 222.12506104 C199.41128311 223.00961472 198.53434296 223.8941684 197.63082886 224.80552673 C195.77421545 226.6729485 193.91461995 228.53675352 192.04969788 230.39581299 C189.65846471 232.78113659 187.28602303 235.18423994 184.91802502 237.59260273 C182.65700028 239.88564655 180.37785734 242.16053123 178.10072327 244.43756104 C177.24955429 245.30512527 176.39838531 246.17268951 175.52142334 247.06654358 C174.72412308 247.85453842 173.92682281 248.64253326 173.10536194 249.45440674 C172.40666489 250.15515823 171.70796783 250.85590973 170.98809814 251.57789612 C168.99525452 252.94927979 168.99525452 252.94927979 166.98477173 252.89282227 C164.5093488 251.71883559 162.98246339 250.29636075 161.0528717 248.34747314 C160.29238525 247.5867601 159.5318988 246.82604706 158.74836731 246.0422821 C157.93780884 245.21623978 157.12725037 244.39019745 156.29212952 243.53912354 C155.4543396 242.69708878 154.61654968 241.85505402 153.75337219 240.98750305 C151.07688619 238.29421295 148.41101395 235.59068319 145.74525452 232.88677979 C143.93344354 231.0599243 142.12095177 229.23374373 140.30775452 227.40826416 C135.86098078 222.93094939 131.42870334 218.43994808 126.99525452 213.94927979 C126.66525452 226.81927979 126.33525452 239.68927979 125.99525452 252.94927979 C113.12525452 253.27927979 100.25525452 253.60927979 86.99525452 253.94927979 C89.82216858 256.71818604 92.64908264 259.48709229 95.56166077 262.33990479 C98.28169456 265.02097961 100.99743122 267.7063361 103.71278381 270.39215088 C105.60676311 272.2609378 107.50519894 274.12521904 109.40809631 275.98492432 C112.13771723 278.6541082 114.85106201 281.33892302 117.56166077 284.02740479 C118.41989944 284.85983704 119.27813812 285.69226929 120.16238403 286.54992676 C120.94326889 287.33043396 121.72415375 288.11094116 122.52870178 288.9151001 C123.2237532 289.59904846 123.91880463 290.28299683 124.63491821 290.9876709 C125.99525452 292.94927979 125.99525452 292.94927979 125.9445343 294.94255066 C124.74292819 297.4826848 123.25048408 299.09006605 121.27333069 301.09112549 C120.48548691 301.89488113 119.69764313 302.69863678 118.88592529 303.52674866 C118.02868362 304.38419174 117.17144196 305.24163483 116.28822327 306.12506104 C114.97281303 307.45189156 114.97281303 307.45189156 113.63082886 308.80552673 C111.77421545 310.6729485 109.91461995 312.53675352 108.04969788 314.39581299 C105.65846471 316.78113659 103.28602303 319.18423994 100.91802502 321.59260273 C98.65700028 323.88564655 96.37785734 326.16053123 94.10072327 328.43756104 C93.24955429 329.30512527 92.39838531 330.17268951 91.52142334 331.06654358 C90.72412308 331.85453842 89.92682281 332.64253326 89.10536194 333.45440674 C88.40666489 334.15515823 87.70796783 334.85590973 86.98809814 335.57789612 C84.99525452 336.94927979 84.99525452 336.94927979 82.99050903 336.89855957 C80.47763332 335.70301178 78.92130999 334.23500463 76.96107483 332.25567627 C76.18056763 331.47494247 75.40006042 330.69420868 74.59590149 329.88981628 C73.76346924 329.04190018 72.93103699 328.19398407 72.07337952 327.32037354 C71.21339355 326.45614273 70.35340759 325.59191193 69.46736145 324.70149231 C66.71954876 321.93687367 63.98234416 319.16201117 61.24525452 316.38677979 C59.38526626 314.51174727 57.52459744 312.6373896 55.66322327 310.76373291 C51.09930479 306.16671961 46.54405514 301.56125023 41.99525452 296.94927979 C36.68491724 301.36628122 31.82388556 306.05453106 27.01478577 311.00787354 C25.50691672 312.54296293 23.99843551 314.0774512 22.48939514 315.61138916 C20.13313229 318.01112641 17.7809678 320.41438365 15.43885803 322.82794189 C13.16294228 325.17012118 10.87171711 327.49634904 8.57728577 329.82037354 C7.87618179 330.55042099 7.17507782 331.28046844 6.45272827 332.03263855 C5.79491867 332.6940535 5.13710907 333.35546844 4.45936584 334.03692627 C3.88535538 334.625056 3.31134491 335.21318573 2.71994019 335.81913757 C0.99525452 336.94927979 0.99525452 336.94927979 -0.96238708 336.86392212 C-3.55323769 335.70364504 -5.12553043 334.22427172 -7.14659119 332.22735596 C-7.95034683 331.43951218 -8.75410248 330.6516684 -9.58221436 329.83995056 C-10.43965744 328.98270889 -11.29710052 328.12546722 -12.18052673 327.24224854 C-13.06508041 326.36530838 -13.94963409 325.48836823 -14.86099243 324.58485413 C-16.7284142 322.72824071 -18.59221922 320.86864522 -20.45127869 319.00372314 C-22.83660229 316.61248998 -25.23970564 314.2400483 -27.64806843 311.87205029 C-29.94111225 309.61102555 -32.21599693 307.3318826 -34.49302673 305.05474854 C-35.79437309 303.77799507 -35.79437309 303.77799507 -37.12200928 302.47544861 C-37.91000412 301.67814835 -38.69799896 300.88084808 -39.50987244 300.05938721 C-40.21062393 299.36069016 -40.91137543 298.6619931 -41.63336182 297.94212341 C-43.00474548 295.94927979 -43.00474548 295.94927979 -42.94828796 293.938797 C-41.77430129 291.46337407 -40.35182645 289.93648866 -38.40293884 288.00689697 C-37.6422258 287.24641052 -36.88151276 286.48592407 -36.0977478 285.70239258 C-35.27170547 284.89183411 -34.44566315 284.08127563 -33.59458923 283.24615479 C-32.75255447 282.40836487 -31.91051971 281.57057495 -31.04296875 280.70739746 C-28.34967865 278.03091146 -25.64614889 275.36503922 -22.94224548 272.69927979 C-21.11539 270.88746881 -19.28920943 269.07497704 -17.46372986 267.26177979 C-12.98641509 262.81500605 -8.49541377 258.38272861 -4.00474548 253.94927979 C-16.87474548 253.61927979 -29.74474548 253.28927979 -43.00474548 252.94927979 C-43.33474548 240.07927979 -43.66474548 227.20927979 -44.00474548 213.94927979 C-46.77365173 216.77619385 -49.54255798 219.60310791 -52.39537048 222.51568604 C-55.07644531 225.23571983 -57.7618018 227.95145649 -60.44761658 230.66680908 C-62.3164035 232.56078838 -64.18068474 234.45922421 -66.04039001 236.36212158 C-68.7095739 239.0917425 -71.39438871 241.80508727 -74.08287048 244.51568604 C-74.91530273 245.37392471 -75.74773499 246.23216339 -76.60539246 247.1164093 C-77.38589966 247.89729416 -78.16640686 248.67817902 -78.9705658 249.48272705 C-79.65451416 250.17777847 -80.33846252 250.8728299 -81.0431366 251.58894348 C-83.00474548 252.94927979 -83.00474548 252.94927979 -84.99801636 252.89855957 C-87.5381505 251.69695345 -89.14553174 250.20450935 -91.14659119 248.22735596 C-91.95034683 247.43951218 -92.75410248 246.6516684 -93.58221436 245.83995056 C-94.43965744 244.98270889 -95.29710052 244.12546722 -96.18052673 243.24224854 C-97.50735725 241.9268383 -97.50735725 241.9268383 -98.86099243 240.58485413 C-100.7284142 238.72824071 -102.59221922 236.86864522 -104.45127869 235.00372314 C-106.83660229 232.61248998 -109.23970564 230.2400483 -111.64806843 227.87205029 C-113.94111225 225.61102555 -116.21599693 223.3318826 -118.49302673 221.05474854 C-119.36059097 220.20357956 -120.22815521 219.35241058 -121.12200928 218.47544861 C-121.91000412 217.67814835 -122.69799896 216.88084808 -123.50987244 216.05938721 C-124.21062393 215.36069016 -124.91137543 214.6619931 -125.63336182 213.94212341 C-127.00474548 211.94927979 -127.00474548 211.94927979 -126.95402527 209.9445343 C-125.75847748 207.43165859 -124.29047033 205.87533526 -122.31114197 203.9151001 C-121.53040817 203.1345929 -120.74967438 202.35408569 -119.94528198 201.54992676 C-119.09736588 200.71749451 -118.24944977 199.88506226 -117.37583923 199.02740479 C-116.51160843 198.16741882 -115.64737762 197.30743286 -114.75695801 196.42138672 C-111.99233937 193.67357403 -109.21747687 190.93636943 -106.44224548 188.19927979 C-104.56721297 186.33929153 -102.6928553 184.47862271 -100.81919861 182.61724854 C-96.22218531 178.05333006 -91.61671593 173.49808041 -87.00474548 168.94927979 C-91.42174692 163.63894251 -96.10999676 158.77791083 -101.06333923 153.96881104 C-102.59842863 152.46094199 -104.1329169 150.95246078 -105.66685486 149.44342041 C-108.0665921 147.08715756 -110.46984935 144.73499307 -112.88340759 142.3928833 C-115.22558687 140.11696755 -117.55181474 137.82574238 -119.87583923 135.53131104 C-120.60588669 134.83020706 -121.33593414 134.12910309 -122.08810425 133.40675354 C-122.7495192 132.74894394 -123.41093414 132.09113434 -124.09239197 131.41339111 C-124.6805217 130.83938065 -125.26865143 130.26537018 -125.87460327 129.67396545 C-127.00474548 127.94927979 -127.00474548 127.94927979 -126.91938782 125.99163818 C-125.75911074 123.40078758 -124.27973742 121.82849484 -122.28282166 119.80743408 C-121.49497787 119.00367844 -120.70713409 118.19992279 -119.89541626 117.37181091 C-119.03817459 116.51436783 -118.18093292 115.65692474 -117.29771423 114.77349854 C-116.42077408 113.88894485 -115.54383392 113.00439117 -114.64031982 112.09303284 C-112.78370641 110.22561107 -110.92411091 108.36180605 -109.05918884 106.50274658 C-106.66795568 104.11742298 -104.295514 101.71431963 -101.92751598 99.30595684 C-99.66649125 97.01291302 -97.3873483 94.73802834 -95.11021423 92.46099854 C-94.25904526 91.5934343 -93.40787628 90.72587006 -92.53091431 89.83201599 C-91.73361404 89.04402115 -90.93631378 88.25602631 -90.11485291 87.44415283 C-89.41615585 86.74340134 -88.7174588 86.04264984 -87.99758911 85.32066345 C-86.00474548 83.94927979 -86.00474548 83.94927979 -83.9942627 84.0057373 C-81.51883977 85.17972398 -79.99195436 86.60219882 -78.06236267 88.55108643 C-77.30187622 89.31179947 -76.54138977 90.07251251 -75.75785828 90.85627747 C-74.54202057 92.09534096 -74.54202057 92.09534096 -73.30162048 93.35943604 C-72.46383057 94.20147079 -71.62604065 95.04350555 -70.76286316 95.91105652 C-68.08637716 98.60434662 -65.42050492 101.30787638 -62.75474548 104.01177979 C-60.94293451 105.83863527 -59.13044274 107.66481584 -57.31724548 109.49029541 C-52.87047175 113.96761018 -48.43819431 118.4586115 -44.00474548 122.94927979 C-43.67474548 110.07927979 -43.34474548 97.20927979 -43.00474548 83.94927979 C-30.13474548 83.61927979 -17.26474548 83.28927979 -4.00474548 82.94927979 C-6.83165955 80.18037354 -9.65857361 77.41146729 -12.57115173 74.55865479 C-15.29118553 71.87757996 -18.00692219 69.19222347 -20.72227478 66.50640869 C-22.61625408 64.63762177 -24.5146899 62.77334053 -26.41758728 60.91363525 C-29.1472082 58.24445137 -31.86055297 55.55963655 -34.57115173 52.87115479 C-35.42939041 52.03872253 -36.28762909 51.20629028 -37.171875 50.34863281 C-37.95275986 49.56812561 -38.73364471 48.78761841 -39.53819275 47.98345947 C-40.23324417 47.29951111 -40.92829559 46.61556274 -41.64440918 45.91088867 C-43.00474548 43.94927979 -43.00474548 43.94927979 -42.95402527 41.95600891 C-41.75241915 39.41587477 -40.25997505 37.80849352 -38.28282166 35.80743408 C-37.49497787 35.00367844 -36.70713409 34.19992279 -35.89541626 33.37181091 C-35.03817459 32.51436783 -34.18093292 31.65692474 -33.29771423 30.77349854 C-32.42077408 29.88894485 -31.54383392 29.00439117 -30.64031982 28.09303284 C-28.78370641 26.22561107 -26.92411091 24.36180605 -25.05918884 22.50274658 C-22.66795568 20.11742298 -20.295514 17.71431963 -17.92751598 15.30595684 C-15.66649125 13.01291302 -13.3873483 10.73802834 -11.11021423 8.46099854 C-10.25904526 7.5934343 -9.40787628 6.72587006 -8.53091431 5.83201599 C-7.33496391 4.65002373 -7.33496391 4.65002373 -6.11485291 3.44415283 C-5.41615585 2.74340134 -4.7174588 2.04264984 -3.99758911 1.32066345 C-2.00474548 -0.05072021 -2.00474548 -0.05072021 0 0 Z M37.301651 47.51348877 C36.52091721 48.2910704 35.74018341 49.06865204 34.93579102 49.86979675 C34.08787491 50.71973709 33.2399588 51.56967743 32.36634827 52.44537354 C31.50211746 53.30864761 30.63788666 54.17192169 29.74746704 55.06135559 C27.91615244 56.89198798 26.08610691 58.72389063 24.25721741 60.5569458 C21.44509886 63.37441197 18.62770074 66.18651879 15.80970764 68.99810791 C14.03660044 70.77187589 12.26380345 72.54595402 10.49134827 74.32037354 C9.64140793 75.16828964 8.79146759 76.01620575 7.91577148 76.88981628 C6.74939903 78.06091698 6.74939903 78.06091698 5.5594635 79.25567627 C4.8696489 79.94628647 4.17983429 80.63689667 3.46911621 81.34843445 C1.8823668 82.70922698 1.8823668 82.70922698 1.99525452 83.94927979 C28.06525452 83.94927979 54.13525452 83.94927979 80.99525452 83.94927979 C76.26696832 78.39012732 76.26696832 78.39012732 71.30067444 73.12530518 C70.6436705 72.46514908 69.98666656 71.80499298 69.30975342 71.12483215 C68.62202347 70.43912643 67.93429352 69.75342072 67.22572327 69.04693604 C66.50411514 68.32437119 65.78250702 67.60180634 65.03903198 66.85734558 C63.52672534 65.34436287 62.01317294 63.83262443 60.49842834 62.32208252 C58.16872464 59.99778245 55.844466 57.66813178 53.52064514 55.33795166 C52.0476588 53.86562528 50.57436275 52.39360869 49.10072327 50.92193604 C48.05394661 49.87212303 48.05394661 49.87212303 46.98602295 48.80110168 C46.34477982 48.16301071 45.70353668 47.52491974 45.04286194 46.86749268 C44.47693832 46.30236465 43.91101471 45.73723663 43.32794189 45.15498352 C40.60896067 42.69507742 39.51142228 45.30626318 37.301651 47.51348877 Z M39.99525452 101.94927979 C39.53377014 102.9560376 39.07228577 103.96279541 38.59681702 105.00006104 C34.54004617 113.77388443 30.25484231 122.38427696 25.71522522 130.91802979 C21.66969781 138.5287511 17.82386557 146.22740947 13.99525452 153.94927979 C11.68525452 158.56927979 9.37525452 163.18927979 6.99525452 167.94927979 C-8.84474548 168.44427979 -8.84474548 168.44427979 -25.00474548 168.94927979 C-22.06280832 171.15573266 -19.91951696 172.5911881 -16.68833923 174.07818604 C-15.85133484 174.46828857 -15.01433044 174.85839111 -14.15196228 175.26031494 C-13.25775574 175.67329834 -12.36354919 176.08628174 -11.44224548 176.51177979 C-3.46328864 180.25025424 4.37526091 184.17913886 12.15052795 188.32281494 C19.69603377 192.34082068 27.33395687 196.15803192 34.99525452 199.94927979 C36.97525452 200.93927979 38.95525452 201.92927979 40.99525452 202.94927979 C41.32525452 213.50927979 41.65525452 224.06927979 41.99525452 234.94927979 C44.71892697 231.31771652 46.71063622 227.74548884 48.68275452 223.69927979 C49.39742186 222.24997403 50.11227044 220.80075764 50.82728577 219.35162354 C51.18902893 218.61540771 51.55077209 217.87919189 51.92347717 217.1206665 C52.92028292 215.10116986 53.92883776 213.08826568 54.94447327 211.07818604 C59.23558456 202.5799105 63.37422398 194.01813658 67.40687561 185.39385986 C68.19597874 183.71866977 69.00605069 182.05318083 69.83778381 180.39874268 C71.05019022 177.96830878 71.05019022 177.96830878 71.83436584 175.35723877 C72.91284146 172.52927952 73.70679139 170.95243098 75.99525452 168.94927979 C81.43755666 167.67101804 86.7455492 167.77938741 92.30775452 167.88677979 C93.82664849 167.88370346 95.34554001 167.87658497 96.86439514 167.86529541 C100.57580261 167.84649778 104.28427978 167.88302936 107.99525452 167.94927979 C105.33226759 165.84541866 102.7591958 164.23795895 99.67884827 162.82037354 C98.84184387 162.430271 98.00483948 162.04016846 97.14247131 161.63824463 C96.24826477 161.22526123 95.35405823 160.81227783 94.43275452 160.38677979 C86.45379767 156.64830533 78.61524812 152.71942071 70.83998108 148.57574463 C63.29447526 144.55773889 55.65655216 140.74052765 47.99525452 136.94927979 C46.01525452 135.95927979 44.03525452 134.96927979 41.99525452 133.94927979 C41.66525452 123.38927979 41.33525452 112.82927979 40.99525452 101.94927979 C40.66525452 101.94927979 40.33525452 101.94927979 39.99525452 101.94927979 Z M-45.60559082 130.42987061 C-46.64150612 131.46911682 -46.64150612 131.46911682 -47.698349 132.52935791 C-48.47908279 133.31016724 -49.25981659 134.09097656 -50.06420898 134.89544678 C-50.91212509 135.74852417 -51.7600412 136.60160156 -52.63365173 137.48052979 C-53.49788254 138.34617554 -54.36211334 139.21182129 -55.25253296 140.10369873 C-57.55425783 142.41008761 -59.85380134 144.71862335 -62.15232849 147.02819824 C-64.49651429 149.38259726 -66.84355975 151.73413802 -69.19029236 154.08599854 C-73.79772659 158.70448938 -78.40229831 163.32581948 -83.00474548 167.94927979 C-78.63912363 173.16861194 -74.05236017 178.04865616 -69.23521423 182.85162354 C-68.51360611 183.57418839 -67.79199799 184.29675323 -67.04852295 185.04121399 C-65.53621631 186.5541967 -64.02266391 188.06593514 -62.50791931 189.57647705 C-60.17821561 191.90077712 -57.85395697 194.23042779 -55.53013611 196.56060791 C-54.05714977 198.03293429 -52.58385371 199.50495088 -51.11021423 200.97662354 C-50.41236313 201.67649887 -49.71451202 202.37637421 -48.99551392 203.09745789 C-48.35427078 203.73554886 -47.71302765 204.37363983 -47.05235291 205.03106689 C-46.48642929 205.59619492 -45.92050568 206.16132294 -45.33743286 206.74357605 C-44.18067972 208.06109556 -44.18067972 208.06109556 -43.00474548 207.94927979 C-43.00474548 181.87927979 -43.00474548 155.80927979 -43.00474548 128.94927979 C-44.24581546 128.83611399 -44.24581546 128.83611399 -45.60559082 130.42987061 Z M125.99525452 128.94927979 C125.99525452 155.01927979 125.99525452 181.08927979 125.99525452 207.94927979 C131.56063353 203.21659932 131.56063353 203.21659932 136.81922913 198.23883057 C137.47938522 197.57859894 138.13954132 196.91836731 138.81970215 196.23812866 C139.50540787 195.54726166 140.19111359 194.85639465 140.89759827 194.14459229 C141.62016312 193.42061249 142.34272797 192.69663269 143.08718872 191.95071411 C145.37142374 189.66092714 147.65213764 187.36766985 149.93275452 185.07427979 C151.49046491 183.51154818 153.04840539 181.94904589 154.60658264 180.38677979 C158.40547054 176.57692669 162.20148165 172.76422599 165.99525452 168.94927979 C161.62963267 163.72994763 157.0428692 158.84990341 152.22572327 154.04693604 C151.50411514 153.32437119 150.78250702 152.60180634 150.03903198 151.85734558 C148.52672534 150.34436287 147.01317294 148.83262443 145.49842834 147.32208252 C143.16872464 144.99778245 140.844466 142.66813178 138.52064514 140.33795166 C137.0476588 138.86562528 135.57436275 137.39360869 134.10072327 135.92193604 C133.40287216 135.2220607 132.70502106 134.52218536 131.98602295 133.80110168 C131.34477982 133.16301071 130.70353668 132.52491974 130.04286194 131.86749268 C129.47693832 131.30236465 128.91101471 130.73723663 128.32794189 130.15498352 C127.17118875 128.83746401 127.17118875 128.83746401 125.99525452 128.94927979 Z M1.99525452 252.94927979 C6.72793498 258.5146588 6.72793498 258.5146588 11.70570374 263.77325439 C12.36593536 264.43341049 13.02616699 265.09356659 13.70640564 265.77372742 C14.39727264 266.45943314 15.08813965 267.14513885 15.79994202 267.85162354 C16.88591171 268.93547081 16.88591171 268.93547081 17.99382019 270.04121399 C20.28360716 272.32544901 22.57686445 274.60616291 24.87025452 276.88677979 C26.43298612 278.44449018 27.99548842 280.00243065 29.55775452 281.56060791 C33.36760761 285.35949581 37.18030831 289.15550692 40.99525452 292.94927979 C46.21458667 288.58365794 51.09463089 283.99689447 55.89759827 279.17974854 C56.62016312 278.45814041 57.34272797 277.73653229 58.08718872 276.99305725 C59.60017143 275.48075061 61.11190987 273.96719821 62.62245178 272.45245361 C64.94675185 270.12274991 67.27640252 267.79849127 69.60658264 265.47467041 C71.07890902 264.00168407 72.55092561 262.52838801 74.02259827 261.05474854 C74.7224736 260.35689743 75.42234894 259.65904633 76.14343262 258.94004822 C76.78152359 258.29880508 77.41961456 257.65756195 78.07704163 256.99688721 C78.64216965 256.43096359 79.20729767 255.86503998 79.78955078 255.28196716 C81.10707029 254.12521402 81.10707029 254.12521402 80.99525452 252.94927979 C54.92525452 252.94927979 28.85525452 252.94927979 1.99525452 252.94927979 Z " fill="#8BCC66" transform="translate(159.00474548339844,32.05072021484375)"/>
<path d="M0 0 C3.22726704 0.57234495 4.3595554 1.69719667 6.6486969 4.02362061 C7.42912857 4.80442993 8.20956024 5.58523926 9.01364136 6.38970947 C9.84091232 7.24278687 10.66818329 8.09586426 11.52052307 8.97479248 C12.37909409 9.84043823 13.2376651 10.70608398 14.12225342 11.59796143 C16.86460398 14.36832334 19.58907405 17.15555416 22.31349182 19.94354248 C24.16846066 21.82358503 26.02456692 23.70250605 27.8818512 25.58026123 C32.43484804 30.18841744 36.97327964 34.81054799 41.50099182 39.44354248 C46.71725229 35.10017622 51.50427614 30.50909 56.22755432 25.63885498 C57.68529063 24.15389366 59.14364191 22.66953584 60.60255432 21.18572998 C62.87754837 18.86730871 65.14843786 16.545386 67.40919495 14.21307373 C69.60813736 11.94772667 71.82249892 9.69846476 74.04005432 7.45135498 C74.71412323 6.74834259 75.38819214 6.0453302 76.08268738 5.3210144 C76.7204007 4.67969574 77.35811401 4.03837708 78.01515198 3.37762451 C78.84618942 2.52540817 78.84618942 2.52540817 79.6940155 1.65597534 C82.17408591 -0.00808568 83.56787596 -0.02714856 86.50099182 0.44354248 C88.62754822 1.93518066 88.62754822 1.93518066 90.75636292 4.05194092 C91.56004303 4.83986023 92.36372314 5.62777954 93.1917572 6.4395752 C94.044039 7.30197815 94.8963208 8.1643811 95.77442932 9.05291748 C96.65756805 9.93127258 97.54070679 10.80962769 98.4506073 11.71459961 C100.31452431 13.57511286 102.17255861 15.43986944 104.02296448 17.31365967 C106.39701906 19.71624366 108.79287458 22.09562468 111.19612694 24.46895981 C113.4843905 26.73483368 115.75354199 29.01964913 118.02442932 31.30291748 C119.3210701 32.58437653 119.3210701 32.58437653 120.64390564 33.89172363 C121.42867279 34.69225159 122.21343994 35.49277954 123.02198792 36.31756592 C123.71972321 37.01927917 124.4174585 37.72099243 125.13633728 38.44396973 C126.50099182 40.44354248 126.50099182 40.44354248 126.4510498 42.44255066 C125.24741251 44.97762581 123.75363394 46.58694747 121.77906799 48.58538818 C120.99122421 49.38914383 120.20338043 50.19289948 119.3916626 51.02101135 C118.53442093 51.87845444 117.67717926 52.73589752 116.79396057 53.61932373 C115.91702042 54.50387741 115.04008026 55.38843109 114.13656616 56.29978943 C112.27995275 58.1672112 110.42035725 60.03101622 108.55543518 61.89007568 C106.16420202 64.27539928 103.79176033 66.67850264 101.42376232 69.08686543 C99.16273759 71.37990925 96.88359464 73.65479392 94.60646057 75.93182373 C93.7552916 76.79938797 92.90412262 77.66695221 92.02716064 78.56080627 C91.22986038 79.34880112 90.43256012 80.13679596 89.61109924 80.94866943 C88.91240219 81.64942093 88.21370514 82.35017242 87.49383545 83.07215881 C85.50099182 84.44354248 85.50099182 84.44354248 83.49624634 84.39282227 C80.98337062 83.19727448 79.4270473 81.72926733 77.46681213 79.74993896 C76.68630493 78.96920517 75.90579773 78.18847137 75.10163879 77.38407898 C74.26920654 76.53616287 73.43677429 75.68824677 72.57911682 74.81463623 C71.71913086 73.95040543 70.8591449 73.08617462 69.97309875 72.195755 C67.22528607 69.43113636 64.48808146 66.65627386 61.75099182 63.88104248 C59.89100357 62.00600997 58.03033475 60.1316523 56.16896057 58.25799561 C51.60504209 53.66098231 47.04979244 49.05551293 42.50099182 44.44354248 C37.19065455 48.86054391 32.32962286 53.54879376 27.52052307 58.50213623 C26.01265403 60.03722562 24.50417282 61.5717139 22.99513245 63.10565186 C20.6388696 65.5053891 18.28670511 67.90864635 15.94459534 70.32220459 C13.66867959 72.66438387 11.37745442 74.99061173 9.08302307 77.31463623 C8.3819191 78.04468369 7.68081512 78.77473114 6.95846558 79.52690125 C6.30065598 80.18831619 5.64284637 80.84973114 4.96510315 81.53118896 C4.10408745 82.41338356 4.10408745 82.41338356 3.22567749 83.31340027 C1.50099182 84.44354248 1.50099182 84.44354248 -0.45664978 84.35818481 C-3.04750038 83.19790773 -4.61979312 81.71853441 -6.64085388 79.72161865 C-7.44460953 78.93377487 -8.24836517 78.14593109 -9.07647705 77.33421326 C-9.93392014 76.47697159 -10.79136322 75.61972992 -11.67478943 74.73651123 C-12.55934311 73.85957108 -13.44389679 72.98263092 -14.35525513 72.07911682 C-16.22267689 70.22250341 -18.08648192 68.36290791 -19.94554138 66.49798584 C-22.33086498 64.10675268 -24.73396834 61.73431099 -27.14233112 59.36631298 C-29.43537494 57.10528825 -31.71025962 54.8261453 -33.98728943 52.54901123 C-34.85485367 51.69784225 -35.72241791 50.84667328 -36.61627197 49.9697113 C-37.79826424 48.77376091 -37.79826424 48.77376091 -39.00413513 47.5536499 C-40.05526237 46.50560432 -40.05526237 46.50560432 -41.12762451 45.43638611 C-42.49900818 43.44354248 -42.49900818 43.44354248 -42.44332886 41.438797 C-41.26438784 38.94781332 -39.82348946 37.37226459 -37.88475037 35.40936279 C-37.12015503 34.62885559 -36.35555969 33.84834839 -35.5677948 33.04418945 C-34.73556396 32.2117572 -33.90333313 31.37932495 -33.04588318 30.52166748 C-32.19351074 29.66168152 -31.34113831 28.80169556 -30.4629364 27.91564941 C-28.65771954 26.0996246 -26.8485048 24.28756648 -25.03562927 22.47918701 C-22.25981467 19.70434519 -19.50599228 16.90889036 -16.75291443 14.11151123 C-14.99770653 12.35109702 -13.24123751 10.59193911 -11.48338318 8.83416748 C-10.24718231 7.57337372 -10.24718231 7.57337372 -8.98600769 6.28710938 C-8.20880371 5.51921082 -7.43159973 4.75131226 -6.63084412 3.96014404 C-5.61277679 2.93899506 -5.61277679 2.93899506 -4.57414246 1.8972168 C-2.49900818 0.44354248 -2.49900818 0.44354248 0 0 Z " fill="#4A4A4A" transform="translate(158.49900817871094,284.55645751953125)"/>
<path d="M0 0 C2.53507515 1.2036373 4.14439681 2.69741586 6.14283752 4.67198181 C6.94659317 5.45982559 7.75034882 6.24766937 8.57846069 7.05938721 C9.43590378 7.91662888 10.29334686 8.77387054 11.17677307 9.65708923 C12.06132675 10.53402939 12.94588043 11.41096954 13.85723877 12.31448364 C15.72466054 14.17109705 17.58846556 16.03069255 19.44752502 17.89561462 C21.83284862 20.28684779 24.23595198 22.65928947 26.64431477 25.02728748 C28.93735859 27.28831222 31.21224326 29.56745516 33.48927307 31.84458923 C34.35683731 32.69575821 35.22440155 33.54692719 36.11825562 34.42388916 C36.90625046 35.22118942 37.6942453 36.01848969 38.50611877 36.83995056 C39.20687027 37.53864761 39.90762177 38.23734467 40.62960815 38.95721436 C42.00099182 40.95005798 42.00099182 40.95005798 41.95027161 42.95480347 C40.75472382 45.46767918 39.28671667 47.02400251 37.30738831 48.98423767 C36.52665451 49.76474487 35.74592072 50.54525208 34.94152832 51.34941101 C34.09361221 52.18184326 33.24569611 53.01427551 32.37208557 53.87193298 C31.50785477 54.73191895 30.64362396 55.59190491 29.75320435 56.47795105 C26.9885857 59.22576374 24.2137232 61.96296834 21.43849182 64.70005798 C19.56345931 66.56004624 17.68910164 68.42071506 15.81544495 70.28208923 C11.21843165 74.84600771 6.61296227 79.40125736 2.00099182 83.95005798 C6.41799326 89.26039526 11.1062431 94.12142694 16.05958557 98.93052673 C17.59467496 100.43839578 19.12916324 101.94687699 20.6631012 103.45591736 C23.06283844 105.81218021 25.46609569 108.1643447 27.87965393 110.50645447 C30.22183321 112.78237022 32.54806108 115.07359539 34.87208557 117.36802673 C35.60213303 118.06913071 36.33218048 118.77023468 37.08435059 119.49258423 C37.74576553 120.15039383 38.40718048 120.80820343 39.08863831 121.48594666 C39.67676804 122.05995712 40.26489777 122.63396759 40.87084961 123.22537231 C42.00099182 124.95005798 42.00099182 124.95005798 41.91563416 126.90769958 C40.75535707 129.49855019 39.27598375 131.07084293 37.27906799 133.09190369 C36.09730232 134.29753716 36.09730232 134.29753716 34.8916626 135.52752686 C34.03442093 136.38496994 33.17717926 137.24241302 32.29396057 138.12583923 C31.41702042 139.01039291 30.54008026 139.89494659 29.63656616 140.80630493 C27.77995275 142.6737267 25.92035725 144.53753172 24.05543518 146.39659119 C21.66420202 148.78191479 19.29176033 151.18501814 16.92376232 153.59338093 C14.66273759 155.88642475 12.38359464 158.16130943 10.10646057 160.43833923 C9.2552916 161.30590347 8.40412262 162.17346771 7.52716064 163.06732178 C6.72986038 163.85531662 5.93256012 164.64331146 5.11109924 165.45518494 C4.41240219 166.15593643 3.71370514 166.85668793 2.99383545 167.57867432 C1.00099182 168.95005798 1.00099182 168.95005798 -1.00375366 168.89437866 C-3.49473734 167.71543764 -5.07028607 166.27453926 -7.03318787 164.33580017 C-8.20394867 163.18890717 -8.20394867 163.18890717 -9.39836121 162.0188446 C-10.23079346 161.18661377 -11.06322571 160.35438293 -11.92088318 159.49693298 C-12.78086914 158.64456055 -13.6408551 157.79218811 -14.52690125 156.91398621 C-16.34292606 155.10876935 -18.15498417 153.29955461 -19.96336365 151.48667908 C-22.73820547 148.71086448 -25.5336603 145.95704209 -28.33103943 143.20396423 C-30.09145364 141.44875633 -31.85061155 139.69228732 -33.60838318 137.93443298 C-34.44891235 137.11029907 -35.28944153 136.28616516 -36.15544128 135.4370575 C-36.92333984 134.65985352 -37.6912384 133.88264954 -38.48240662 133.08189392 C-39.16317261 132.40318237 -39.8439386 131.72447083 -40.54533386 131.02519226 C-41.99900818 128.95005798 -41.99900818 128.95005798 -42.44255066 126.4510498 C-41.87020571 123.22378277 -40.74535399 122.09149441 -38.41893005 119.80235291 C-37.63812073 119.02192123 -36.8573114 118.24148956 -36.05284119 117.43740845 C-35.19976379 116.61013748 -34.3466864 115.78286652 -33.46775818 114.93052673 C-32.60211243 114.07195572 -31.73646667 113.2133847 -30.84458923 112.32879639 C-28.07422732 109.58644583 -25.2869965 106.86197576 -22.49900818 104.13755798 C-20.61896563 102.28258914 -18.74004461 100.42648288 -16.86228943 98.56919861 C-12.25413322 94.01620177 -7.63200267 89.47777017 -2.99900818 84.95005798 C-7.34237444 79.73379752 -11.93346066 74.94677366 -16.80369568 70.22349548 C-18.288657 68.76575918 -19.77301482 67.30740789 -21.25682068 65.84849548 C-23.57524194 63.57350144 -25.89716466 61.30261194 -28.22947693 59.04185486 C-30.49482399 56.84291244 -32.7440859 54.62855088 -34.99119568 52.41099548 C-35.69420807 51.73692657 -36.39722046 51.06285767 -37.12153625 50.36836243 C-37.76285492 49.73064911 -38.40417358 49.09293579 -39.06492615 48.43589783 C-39.91714249 47.60486038 -39.91714249 47.60486038 -40.78657532 46.7570343 C-42.45063634 44.2769639 -42.46969922 42.88317384 -41.99900818 39.95005798 C-40.50737 37.82350159 -40.50737 37.82350159 -38.39060974 35.69468689 C-37.60269043 34.89100677 -36.81477112 34.08732666 -36.00297546 33.2592926 C-35.14057251 32.4070108 -34.27816956 31.554729 -33.38963318 30.67662048 C-32.51127808 29.79348175 -31.63292297 28.91034302 -30.72795105 28.0004425 C-28.86743779 26.13652549 -27.00268122 24.27849119 -25.12889099 22.42808533 C-22.726307 20.05403075 -20.34692598 17.65817522 -17.97359085 15.25492287 C-15.70771698 12.96665931 -13.42290153 10.69750782 -11.13963318 8.42662048 C-10.28532715 7.5621933 -9.43102112 6.69776611 -8.55082703 5.80714417 C-7.75029907 5.02237701 -6.94977112 4.23760986 -6.12498474 3.42906189 C-5.42327148 2.7313266 -4.72155823 2.03359131 -3.99858093 1.31471252 C-1.99900818 -0.04994202 -1.99900818 -0.04994202 0 0 Z " fill="#4A4A4A" transform="translate(326.99900817871094,116.04994201660156)"/>
<path d="M0 0 C2.49098368 1.17894102 4.06653241 2.6198394 6.0294342 4.55857849 C6.80994141 5.32317383 7.59044861 6.08776917 8.39460754 6.87553406 C9.22703979 7.70776489 10.05947205 8.53999573 10.91712952 9.39744568 C11.77711548 10.24981812 12.63710144 11.10219055 13.52314758 11.98039246 C15.33917239 13.78560931 17.15123051 15.59482405 18.95960999 17.40769958 C21.73445181 20.18351418 24.52990664 22.93733657 27.32728577 25.69041443 C29.08769998 27.44562233 30.84685789 29.20209134 32.60462952 30.95994568 C33.44515869 31.78407959 34.28568787 32.6082135 35.15168762 33.45732117 C35.91958618 34.23452515 36.68748474 35.01172913 37.47865295 35.81248474 C38.15941895 36.49119629 38.84018494 37.16990784 39.5415802 37.8691864 C40.99525452 39.94432068 40.99525452 39.94432068 41.438797 42.44332886 C40.86645205 45.6705959 39.74160033 46.80288426 37.41517639 49.09202576 C36.63436707 49.87245743 35.85355774 50.6528891 35.04908752 51.45697021 C34.19601013 52.28424118 33.34293274 53.11151215 32.46400452 53.96385193 C31.59835876 54.82242294 30.73271301 55.68099396 29.84083557 56.56558228 C27.07047366 59.30793284 24.28324284 62.03240291 21.49525452 64.75682068 C19.61521197 66.61178952 17.73629094 68.46789578 15.85853577 70.32518005 C11.25037956 74.8781769 6.62824901 79.41660849 1.99525452 83.94432068 C6.33862077 89.16058115 10.92970699 93.947605 15.79994202 98.67088318 C17.28490334 100.12861948 18.76926116 101.58697077 20.25306702 103.04588318 C22.57148828 105.32087723 24.893411 107.59176672 27.22572327 109.8525238 C29.49107033 112.05146622 31.74033224 114.26582778 33.98744202 116.48338318 C34.69045441 117.15745209 35.3934668 117.831521 36.11778259 118.52601624 C36.75910126 119.16372955 37.40041992 119.80144287 38.06117249 120.45848083 C38.62931671 121.0125058 39.19746094 121.56653076 39.78282166 122.13734436 C41.44688268 124.61741477 41.46594556 126.01120482 40.99525452 128.94432068 C39.50361633 131.07087708 39.50361633 131.07087708 37.38685608 133.19969177 C36.59893677 134.00337189 35.81101746 134.807052 34.9992218 135.63508606 C34.13681885 136.48736786 33.27441589 137.33964966 32.38587952 138.21775818 C31.50752441 139.10089691 30.62916931 139.98403564 29.72419739 140.89393616 C27.86368413 142.75785317 25.99892756 144.61588747 24.12513733 146.46629333 C21.72255334 148.84034792 19.34317232 151.23620344 16.96983719 153.6394558 C14.70396332 155.92771936 12.41914787 158.19687085 10.13587952 160.46775818 C8.85442047 161.76439896 8.85442047 161.76439896 7.54707336 163.0872345 C6.74654541 163.87200165 5.94601746 164.6567688 5.12123108 165.46531677 C4.41951782 166.16305206 3.71780457 166.86078735 2.99482727 167.57966614 C0.99525452 168.94432068 0.99525452 168.94432068 -1.00375366 168.89437866 C-3.53882882 167.69074136 -5.14815047 166.1969628 -7.14659119 164.22239685 C-7.95034683 163.43455307 -8.75410248 162.64670929 -9.58221436 161.83499146 C-10.43965744 160.97774979 -11.29710052 160.12050812 -12.18052673 159.23728943 C-13.50735725 157.9218792 -13.50735725 157.9218792 -14.86099243 156.57989502 C-16.7284142 154.72328161 -18.59221922 152.86368611 -20.45127869 150.99876404 C-22.83660229 148.60753088 -25.23970564 146.23508919 -27.64806843 143.86709118 C-29.94111225 141.60606644 -32.21599693 139.3269235 -34.49302673 137.04978943 C-35.36059097 136.19862045 -36.22815521 135.34745148 -37.12200928 134.4704895 C-37.91000412 133.67318924 -38.69799896 132.87588898 -39.50987244 132.0544281 C-40.21062393 131.35573105 -40.91137543 130.657034 -41.63336182 129.93716431 C-43.00474548 127.94432068 -43.00474548 127.94432068 -42.95402527 125.9395752 C-41.75847748 123.42669948 -40.29047033 121.87037615 -38.31114197 119.91014099 C-37.53040817 119.12963379 -36.74967438 118.34912659 -35.94528198 117.54496765 C-35.09736588 116.7125354 -34.24944977 115.88010315 -33.37583923 115.02244568 C-32.51160843 114.16245972 -31.64737762 113.30247375 -30.75695801 112.41642761 C-27.99233937 109.66861493 -25.21747687 106.93141032 -22.44224548 104.19432068 C-20.56721297 102.33433243 -18.6928553 100.47366361 -16.81919861 98.61228943 C-12.22218531 94.04837095 -7.61671593 89.4931213 -3.00474548 84.94432068 C-7.42174692 79.6339834 -12.10999676 74.77295172 -17.06333923 69.96385193 C-18.59842863 68.45598289 -20.1329169 66.94750167 -21.66685486 65.4384613 C-24.0665921 63.08219845 -26.46984935 60.73003397 -28.88340759 58.38792419 C-31.22558687 56.11200845 -33.55181474 53.82078328 -35.87583923 51.52635193 C-36.60588669 50.82524796 -37.33593414 50.12414398 -38.08810425 49.40179443 C-38.7495192 48.74398483 -39.41093414 48.08617523 -40.09239197 47.40843201 C-40.97458656 46.54741631 -40.97458656 46.54741631 -41.87460327 45.66900635 C-43.00474548 43.94432068 -43.00474548 43.94432068 -42.91938782 41.98667908 C-41.75911074 39.39582847 -40.27973742 37.82353574 -38.28282166 35.80247498 C-37.49497787 34.99871933 -36.70713409 34.19496368 -35.89541626 33.36685181 C-35.03817459 32.50940872 -34.18093292 31.65196564 -33.29771423 30.76853943 C-32.42077408 29.88398575 -31.54383392 28.99943207 -30.64031982 28.08807373 C-28.78370641 26.22065196 -26.92411091 24.35684694 -25.05918884 22.49778748 C-22.66795568 20.11246388 -20.295514 17.70936052 -17.92751598 15.30099773 C-15.66649125 13.00795391 -13.3873483 10.73306924 -11.11021423 8.45603943 C-10.25904526 7.58847519 -9.40787628 6.72091095 -8.53091431 5.82705688 C-7.33496391 4.64506462 -7.33496391 4.64506462 -6.11485291 3.43919373 C-5.06680733 2.38806648 -5.06680733 2.38806648 -3.99758911 1.31570435 C-2.00474548 -0.05567932 -2.00474548 -0.05567932 0 0 Z " fill="#4A4A4A" transform="translate(75.00474548339844,116.05567932128906)"/>
<path d="M0 0 C2.51287571 1.19554779 4.06919904 2.66355494 6.0294342 4.6428833 C6.80994141 5.4236171 7.59044861 6.20435089 8.39460754 7.00874329 C9.22703979 7.85665939 10.05947205 8.7045755 10.91712952 9.57818604 C11.77711548 10.44241684 12.63710144 11.30664764 13.52314758 12.19706726 C16.27096027 14.9616859 19.00816487 17.7365484 21.74525452 20.51177979 C23.60524277 22.3868123 25.46591159 24.26116997 27.32728577 26.13482666 C31.89120424 30.73183996 36.4464539 35.33730934 40.99525452 39.94927979 C46.30559179 35.53227835 51.16662348 30.84402851 55.97572327 25.89068604 C57.48359231 24.35559664 58.99207352 22.82110837 60.50111389 21.28717041 C62.85737674 18.88743317 65.20954123 16.48417592 67.551651 14.07061768 C69.82756675 11.72843839 72.11879192 9.40221053 74.41322327 7.07818604 C75.11432724 6.34813858 75.81543121 5.61809113 76.53778076 4.86592102 C77.19559036 4.20450607 77.85339996 3.54309113 78.53114319 2.8616333 C79.10515366 2.27350357 79.67916412 1.68537384 80.27056885 1.079422 C81.99525452 -0.05072021 81.99525452 -0.05072021 83.95289612 0.03463745 C86.54374672 1.19491453 88.11603946 2.67428785 90.13710022 4.67120361 C91.34273369 5.85296928 91.34273369 5.85296928 92.57272339 7.05860901 C93.43016647 7.91585068 94.28760956 8.77309235 95.17103577 9.65631104 C96.05558945 10.53325119 96.94014313 11.41019135 97.85150146 12.31370544 C99.71892323 14.17031886 101.58272826 16.02991436 103.44178772 17.89483643 C105.82711132 20.28606959 108.23021468 22.65851127 110.63857746 25.02650928 C112.93162128 27.28753402 115.20650596 29.56667697 117.48353577 31.84381104 C118.35110001 32.69498001 119.21866425 33.54614899 120.11251831 34.42311096 C120.90051315 35.22041122 121.688508 36.01771149 122.50038147 36.83917236 C123.20113297 37.53786942 123.90188446 38.23656647 124.62387085 38.95643616 C125.99525452 40.94927979 125.99525452 40.94927979 125.9395752 42.95402527 C124.76063417 45.44500895 123.3197358 47.02055768 121.3809967 48.98345947 C120.2341037 50.15422028 120.2341037 50.15422028 119.06404114 51.34863281 C118.2318103 52.18106506 117.39957947 53.01349731 116.54212952 53.87115479 C115.26357086 55.16113373 115.26357086 55.16113373 113.95918274 56.47717285 C112.15396588 58.29319766 110.34475114 60.10525578 108.53187561 61.91363525 C105.75606101 64.68847708 103.00223862 67.48393191 100.24916077 70.28131104 C98.49395287 72.04172525 96.73748385 73.80088316 94.97962952 75.55865479 C94.15549561 76.39918396 93.33136169 77.23971313 92.48225403 78.10571289 C91.70505005 78.87361145 90.92784607 79.64151001 90.12709045 80.43267822 C89.44837891 81.11344421 88.76966736 81.79421021 88.07038879 82.49560547 C85.99525452 83.94927979 85.99525452 83.94927979 83.49624634 84.39282227 C80.2689793 83.82047732 79.13669094 82.6956256 76.84754944 80.36920166 C76.06711777 79.58839233 75.2866861 78.80758301 74.48260498 78.00311279 C73.65533401 77.1500354 72.82806305 76.29695801 71.97572327 75.41802979 C71.11715225 74.55238403 70.25858124 73.68673828 69.37399292 72.79486084 C66.63164236 70.02449893 63.90717229 67.23726811 61.18275452 64.44927979 C59.32778568 62.56923724 57.47167941 60.69031621 55.61439514 58.81256104 C51.0613983 54.20440483 46.5229667 49.58227428 41.99525452 44.94927979 C36.77899405 49.29264604 31.9919702 53.88373226 27.26869202 58.75396729 C25.81095571 60.2389286 24.35260443 61.72328643 22.89369202 63.20709229 C20.61869797 65.52551355 18.34780848 67.84743627 16.08705139 70.17974854 C13.88810897 72.4450956 11.67374741 74.69435751 9.45619202 76.94146729 C8.78212311 77.64447968 8.1080542 78.34749207 7.41355896 79.07180786 C6.77584564 79.71312653 6.13813232 80.35444519 5.48109436 81.01519775 C4.9270694 81.58334198 4.37304443 82.15148621 3.80223083 82.73684692 C1.32216043 84.40090795 -0.07162962 84.41997083 -3.00474548 83.94927979 C-5.13130188 82.4576416 -5.13130188 82.4576416 -7.26011658 80.34088135 C-8.46563675 79.15900238 -8.46563675 79.15900238 -9.69551086 77.95324707 C-10.54779266 77.09084412 -11.40007446 76.22844116 -12.27818298 75.33990479 C-13.60289108 74.02237213 -13.60289108 74.02237213 -14.95436096 72.67822266 C-16.81827797 70.8177094 -18.67631227 68.95295283 -20.52671814 67.0791626 C-22.90077272 64.67657861 -25.29662824 62.29719759 -27.6998806 59.92386246 C-29.98814416 57.65798859 -32.25729565 55.37317314 -34.52818298 53.08990479 C-35.39261017 52.23559875 -36.25703735 51.38129272 -37.1476593 50.50109863 C-37.93242645 49.70057068 -38.7171936 48.90004272 -39.52574158 48.07525635 C-40.22347687 47.37354309 -40.92121216 46.67182983 -41.64009094 45.94885254 C-43.00474548 43.94927979 -43.00474548 43.94927979 -42.95480347 41.95027161 C-41.75116617 39.41519645 -40.2573876 37.8058748 -38.28282166 35.80743408 C-37.49497787 35.00367844 -36.70713409 34.19992279 -35.89541626 33.37181091 C-35.03817459 32.51436783 -34.18093292 31.65692474 -33.29771423 30.77349854 C-32.42077408 29.88894485 -31.54383392 29.00439117 -30.64031982 28.09303284 C-28.78370641 26.22561107 -26.92411091 24.36180605 -25.05918884 22.50274658 C-22.66795568 20.11742298 -20.295514 17.71431963 -17.92751598 15.30595684 C-15.66649125 13.01291302 -13.3873483 10.73802834 -11.11021423 8.46099854 C-10.25904526 7.5934343 -9.40787628 6.72587006 -8.53091431 5.83201599 C-7.33496391 4.65002373 -7.33496391 4.65002373 -6.11485291 3.44415283 C-5.06680733 2.39302559 -5.06680733 2.39302559 -3.99758911 1.32066345 C-2.00474548 -0.05072021 -2.00474548 -0.05072021 0 0 Z " fill="#4A4A4A" transform="translate(159.00474548339844,32.05072021484375)"/>
<path d="M0 0 C3.22656523 2.48681613 4.9240693 4.89439879 6.0390625 8.796875 C6.6990625 8.796875 7.3590625 8.796875 8.0390625 8.796875 C8.24402344 9.50714844 8.44898438 10.21742188 8.66015625 10.94921875 C8.92957031 11.86832031 9.19898438 12.78742188 9.4765625 13.734375 C9.74339844 14.65089844 10.01023437 15.56742187 10.28515625 16.51171875 C10.82932301 18.7371243 10.82932301 18.7371243 12.0390625 19.796875 C12.96117183 27.2795655 11.23832376 33.08413931 8.0390625 39.796875 C7.3790625 39.796875 6.7190625 39.796875 6.0390625 39.796875 C5.8328125 40.51875 5.6265625 41.240625 5.4140625 41.984375 C2.68096024 47.57481144 -1.63502659 49.86954657 -7.2109375 52.109375 C-15.69632971 54.92252939 -22.52137045 54.64999928 -30.6953125 51 C-34.98459888 48.72224103 -38.14553097 46.464752 -40.3359375 41.984375 C-40.5421875 41.2625 -40.7484375 40.540625 -40.9609375 39.796875 C-41.6209375 39.796875 -42.2809375 39.796875 -42.9609375 39.796875 C-46.82576878 31.84291419 -48.74625536 24.5452907 -46.0546875 15.87890625 C-45.103175 13.46954067 -44.09276607 11.12621862 -42.9609375 8.796875 C-42.3009375 8.796875 -41.6409375 8.796875 -40.9609375 8.796875 C-40.7959375 8.095625 -40.6309375 7.394375 -40.4609375 6.671875 C-37.57949918 1.14911823 -32.25870021 -1.94500975 -26.5234375 -4.078125 C-17.08865831 -6.77147222 -8.38435024 -5.14418301 0 0 Z " fill="#C5E5B2" transform="translate(343.9609375,302.203125)"/>
<path d="M0 0 C3.22656523 2.48681613 4.9240693 4.89439879 6.0390625 8.796875 C6.6990625 8.796875 7.3590625 8.796875 8.0390625 8.796875 C8.24402344 9.50714844 8.44898438 10.21742188 8.66015625 10.94921875 C8.92957031 11.86832031 9.19898438 12.78742188 9.4765625 13.734375 C9.74339844 14.65089844 10.01023438 15.56742187 10.28515625 16.51171875 C10.82932301 18.7371243 10.82932301 18.7371243 12.0390625 19.796875 C12.96117183 27.2795655 11.23832376 33.08413931 8.0390625 39.796875 C7.3790625 39.796875 6.7190625 39.796875 6.0390625 39.796875 C5.8328125 40.51875 5.6265625 41.240625 5.4140625 41.984375 C2.68096024 47.57481144 -1.63502659 49.86954657 -7.2109375 52.109375 C-15.69632971 54.92252939 -22.52137045 54.64999928 -30.6953125 51 C-34.98459888 48.72224103 -38.14553097 46.464752 -40.3359375 41.984375 C-40.5421875 41.2625 -40.7484375 40.540625 -40.9609375 39.796875 C-41.6209375 39.796875 -42.2809375 39.796875 -42.9609375 39.796875 C-46.82576878 31.84291419 -48.74625536 24.5452907 -46.0546875 15.87890625 C-45.103175 13.46954067 -44.09276607 11.12621862 -42.9609375 8.796875 C-42.3009375 8.796875 -41.6409375 8.796875 -40.9609375 8.796875 C-40.7959375 8.095625 -40.6309375 7.394375 -40.4609375 6.671875 C-37.57949918 1.14911823 -32.25870021 -1.94500975 -26.5234375 -4.078125 C-17.08865831 -6.77147222 -8.38435024 -5.14418301 0 0 Z " fill="#C5E5B2" transform="translate(91.9609375,302.203125)"/>
<path d="M0 0 C3.22656523 2.48681613 4.9240693 4.89439879 6.0390625 8.796875 C6.6990625 8.796875 7.3590625 8.796875 8.0390625 8.796875 C8.24402344 9.50714844 8.44898438 10.21742187 8.66015625 10.94921875 C8.92957031 11.86832031 9.19898438 12.78742187 9.4765625 13.734375 C9.74339844 14.65089844 10.01023437 15.56742188 10.28515625 16.51171875 C10.82932301 18.7371243 10.82932301 18.7371243 12.0390625 19.796875 C12.96117183 27.2795655 11.23832376 33.08413931 8.0390625 39.796875 C7.3790625 39.796875 6.7190625 39.796875 6.0390625 39.796875 C5.8328125 40.51875 5.6265625 41.240625 5.4140625 41.984375 C2.68096024 47.57481144 -1.63502659 49.86954657 -7.2109375 52.109375 C-15.69632971 54.92252939 -22.52137045 54.64999928 -30.6953125 51 C-34.98459888 48.72224103 -38.14553097 46.464752 -40.3359375 41.984375 C-40.5421875 41.2625 -40.7484375 40.540625 -40.9609375 39.796875 C-41.6209375 39.796875 -42.2809375 39.796875 -42.9609375 39.796875 C-46.82576878 31.84291419 -48.74625536 24.5452907 -46.0546875 15.87890625 C-45.103175 13.46954067 -44.09276607 11.12621862 -42.9609375 8.796875 C-42.3009375 8.796875 -41.6409375 8.796875 -40.9609375 8.796875 C-40.7959375 8.095625 -40.6309375 7.394375 -40.4609375 6.671875 C-37.57949918 1.14911823 -32.25870021 -1.94500975 -26.5234375 -4.078125 C-17.08865831 -6.77147222 -8.38435024 -5.14418301 0 0 Z " fill="#C5E5B2" transform="translate(343.9609375,50.203125)"/>
<path d="M0 0 C3.22656523 2.48681613 4.9240693 4.89439879 6.0390625 8.796875 C6.6990625 8.796875 7.3590625 8.796875 8.0390625 8.796875 C8.24402344 9.50714844 8.44898438 10.21742187 8.66015625 10.94921875 C8.92957031 11.86832031 9.19898438 12.78742187 9.4765625 13.734375 C9.74339844 14.65089844 10.01023438 15.56742188 10.28515625 16.51171875 C10.82932301 18.7371243 10.82932301 18.7371243 12.0390625 19.796875 C12.96117183 27.2795655 11.23832376 33.08413931 8.0390625 39.796875 C7.3790625 39.796875 6.7190625 39.796875 6.0390625 39.796875 C5.8328125 40.51875 5.6265625 41.240625 5.4140625 41.984375 C2.68096024 47.57481144 -1.63502659 49.86954657 -7.2109375 52.109375 C-15.69632971 54.92252939 -22.52137045 54.64999928 -30.6953125 51 C-34.98459888 48.72224103 -38.14553097 46.464752 -40.3359375 41.984375 C-40.5421875 41.2625 -40.7484375 40.540625 -40.9609375 39.796875 C-41.6209375 39.796875 -42.2809375 39.796875 -42.9609375 39.796875 C-46.82576878 31.84291419 -48.74625536 24.5452907 -46.0546875 15.87890625 C-45.103175 13.46954067 -44.09276607 11.12621862 -42.9609375 8.796875 C-42.3009375 8.796875 -41.6409375 8.796875 -40.9609375 8.796875 C-40.7959375 8.095625 -40.6309375 7.394375 -40.4609375 6.671875 C-37.57949918 1.14911823 -32.25870021 -1.94500975 -26.5234375 -4.078125 C-17.08865831 -6.77147222 -8.38435024 -5.14418301 0 0 Z " fill="#C5E5B2" transform="translate(91.9609375,50.203125)"/>
<path d="M0 0 C6.0546875 -0.1953125 6.0546875 -0.1953125 8 0 C8.66 0.66 9.32 1.32 10 2 C6.78548731 3.60725635 3.56387464 3.05748185 0 3 C0 2.01 0 1.02 0 0 Z " fill="#BBE3A9" transform="translate(323,353)"/>
<path d="M0 0 C6.0546875 -0.1953125 6.0546875 -0.1953125 8 0 C8.66 0.66 9.32 1.32 10 2 C6.78548731 3.60725635 3.56387464 3.05748185 0 3 C0 2.01 0 1.02 0 0 Z " fill="#BBE3A9" transform="translate(71,353)"/>
<path d="M0 0 C6.0546875 -0.1953125 6.0546875 -0.1953125 8 0 C8.66 0.66 9.32 1.32 10 2 C6.78548731 3.60725635 3.56387464 3.05748185 0 3 C0 2.01 0 1.02 0 0 Z " fill="#BBE3A9" transform="translate(323,101)"/>
<path d="M0 0 C6.0546875 -0.1953125 6.0546875 -0.1953125 8 0 C8.66 0.66 9.32 1.32 10 2 C6.78548731 3.60725635 3.56387464 3.05748185 0 3 C0 2.01 0 1.02 0 0 Z " fill="#BBE3A9" transform="translate(71,101)"/>
<path d="" fill="#000000" transform="translate(0,0)"/>
<path d="" fill="#000000" transform="translate(0,0)"/>
<path d="" fill="#FFFF00" transform="translate(0,0)"/>
<path d="" fill="#FFFF00" transform="translate(0,0)"/>
<path d="" fill="#FFFF00" transform="translate(0,0)"/>
<path d="" fill="#FFFF00" transform="translate(0,0)"/>
<path d="" fill="#000000" transform="translate(0,0)"/>
<path d="" fill="#000000" transform="translate(0,0)"/>
</svg>
